<svg xmlns="http://www.w3.org/2000/svg" xmlns:xlink="http://www.w3.org/1999/xlink" width="32" height="32" version="1.1" viewBox="0 0 32 32"><title>shaded-32/compute-engine</title><desc>Created with Sketch.</desc><g id="Page-1" fill="none" fill-rule="evenodd" stroke="none" stroke-width="1"><g id="shaded-32/compute-engine"><rect id="Container" width="32" height="32" x="0" y="0"/><g id="shape" transform="translate(1.000000, 1.000000)"><rect id="Rectangle-path" width="4" height="3" x="0" y="8" fill="#616161"/><rect id="Rectangle-path" width="4" height="3" x="0" y="13" fill="#616161"/><rect id="Rectangle-path" width="4" height="3" x="0" y="18" fill="#616161"/><rect id="Rectangle-path" width="4" height="3" x="25" y="8" fill="#616161"/><rect id="Rectangle-path" width="4" height="3" x="25" y="13" fill="#616161"/><rect id="Rectangle-path" width="4" height="3" x="25" y="18" fill="#616161"/><rect id="Rectangle-path" width="3" height="4" x="18" y="0" fill="#616161"/><rect id="Rectangle-path" width="3" height="4" x="13" y="0" fill="#616161"/><rect id="Rectangle-path" width="3" height="4" x="8" y="0" fill="#616161"/><rect id="Rectangle-path" width="3" height="4" x="18" y="25" fill="#616161"/><rect id="Rectangle-path" width="3" height="4" x="13" y="25" fill="#616161"/><rect id="Rectangle-path" width="3" height="4" x="8" y="25" fill="#616161"/><path id="Shape" fill="#757575" d="M4,4 L4,25 L25,25 L25,4 L4,4 L4,4 Z M22,22 L7,22 L7,7 L22,7 L22,22 L22,22 Z"/><rect id="Rectangle-path" width="9" height="9" x="10" y="10" fill="#757575"/><path id="Shape" fill="#424242" d="M19,19 L14.5,19 L14.5,14.4998 L19,9.9997 L19,19 Z"/><path id="Shape" fill="#616161" d="M19,19 L10,19 L14.5,14.4998 L19,19 Z"/></g></g></g></svg>